# xmcd
#
# Track frame offsets:
#	150
#	19675
#	41117
#	58502
#	81782
#	100230
#	115172
#	131945
#	146467
#	163882
#	179137
#	202307
#
# Disc length: 3040 seconds
#
# Revision: 2
# Processed by: cddbd v1.5.1PL0 Copyright (c) Steve Scherf et al.
# Submitted via: audiograbber 1.83.01
#
DISCID=b50bde0c
DTITLE=Montgomery Gentry - Carrying On
DYEAR=2001
DGENRE=Country
TTITLE0=She Couldn't Change Me
TTITLE1=My Father's Son
TTITLE2=The Fine Line
TTITLE3=Cold One Comin' On
TTITLE4=While The World Goes Down The Drain
TTITLE5=Hellbent On Saving Me
TTITLE6=Carrying On
TTITLE7=Ramblin' Man
TTITLE8=Black Jack Fletcher And Mississippi Sam
TTITLE9=Lucky To Be Here
TTITLE10=Too Hard To Handle, Too Free To Hold
TTITLE11=Tried And True
EXTD=YEAR: 2001 ID3G:   2
EXTT0=
EXTT1=
EXTT2=
EXTT3=
EXTT4=
EXTT5=
EXTT6=
EXTT7=
EXTT8=
EXTT9=
EXTT10=
EXTT11=
PLAYORDER=
